<mxfile host="app.diagrams.net" agent="Mozilla/5.0 (Macintosh; Intel Mac OS X 10_15_7) AppleWebKit/537.36 (KHTML, like Gecko) Chrome/130.0.0.0 Safari/537.36" version="24.8.1">
  <diagram name="Page-1" id="OvpAMXKQL2L0T2qrA__i">
    <mxGraphModel dx="1400" dy="776" grid="1" gridSize="10" guides="1" tooltips="1" connect="1" arrows="1" fold="1" page="1" pageScale="1" pageWidth="827" pageHeight="1169" math="0" shadow="0">
      <root>
        <mxCell id="0" />
        <mxCell id="1" parent="0" />
        <mxCell id="uzc9sxKopWnoCpD7zDjD-1" value="main" style="rounded=1;whiteSpace=wrap;html=1;" vertex="1" parent="1">
          <mxGeometry x="354" y="420" width="120" height="60" as="geometry" />
        </mxCell>
        <mxCell id="uzc9sxKopWnoCpD7zDjD-8" style="edgeStyle=orthogonalEdgeStyle;rounded=0;orthogonalLoop=1;jettySize=auto;html=1;entryX=0;entryY=0.75;entryDx=0;entryDy=0;" edge="1" parent="1" source="uzc9sxKopWnoCpD7zDjD-2" target="uzc9sxKopWnoCpD7zDjD-1">
          <mxGeometry relative="1" as="geometry">
            <Array as="points">
              <mxPoint x="260" y="465" />
            </Array>
          </mxGeometry>
        </mxCell>
        <mxCell id="uzc9sxKopWnoCpD7zDjD-2" value="main.o" style="rounded=1;whiteSpace=wrap;html=1;" vertex="1" parent="1">
          <mxGeometry x="210" y="570" width="120" height="60" as="geometry" />
        </mxCell>
        <mxCell id="uzc9sxKopWnoCpD7zDjD-9" style="edgeStyle=orthogonalEdgeStyle;rounded=0;orthogonalLoop=1;jettySize=auto;html=1;entryX=0.5;entryY=1;entryDx=0;entryDy=0;" edge="1" parent="1" source="uzc9sxKopWnoCpD7zDjD-3" target="uzc9sxKopWnoCpD7zDjD-1">
          <mxGeometry relative="1" as="geometry" />
        </mxCell>
        <mxCell id="uzc9sxKopWnoCpD7zDjD-3" value="affiche&lt;span style=&quot;background-color: initial;&quot;&gt;.o&lt;/span&gt;" style="rounded=1;whiteSpace=wrap;html=1;" vertex="1" parent="1">
          <mxGeometry x="354" y="570" width="120" height="60" as="geometry" />
        </mxCell>
        <mxCell id="uzc9sxKopWnoCpD7zDjD-10" style="edgeStyle=orthogonalEdgeStyle;rounded=0;orthogonalLoop=1;jettySize=auto;html=1;entryX=1;entryY=0.5;entryDx=0;entryDy=0;" edge="1" parent="1" source="uzc9sxKopWnoCpD7zDjD-4" target="uzc9sxKopWnoCpD7zDjD-1">
          <mxGeometry relative="1" as="geometry">
            <Array as="points">
              <mxPoint x="590" y="450" />
            </Array>
          </mxGeometry>
        </mxCell>
        <mxCell id="uzc9sxKopWnoCpD7zDjD-4" value="calcul.o" style="rounded=1;whiteSpace=wrap;html=1;" vertex="1" parent="1">
          <mxGeometry x="500" y="570" width="120" height="60" as="geometry" />
        </mxCell>
        <mxCell id="uzc9sxKopWnoCpD7zDjD-7" style="edgeStyle=orthogonalEdgeStyle;rounded=0;orthogonalLoop=1;jettySize=auto;html=1;entryX=0;entryY=0.5;entryDx=0;entryDy=0;" edge="1" parent="1" source="uzc9sxKopWnoCpD7zDjD-5" target="uzc9sxKopWnoCpD7zDjD-1">
          <mxGeometry relative="1" as="geometry">
            <Array as="points">
              <mxPoint x="140" y="450" />
            </Array>
          </mxGeometry>
        </mxCell>
        <mxCell id="uzc9sxKopWnoCpD7zDjD-5" value="error.o" style="rounded=1;whiteSpace=wrap;html=1;" vertex="1" parent="1">
          <mxGeometry x="70" y="570" width="120" height="60" as="geometry" />
        </mxCell>
        <mxCell id="uzc9sxKopWnoCpD7zDjD-11" style="edgeStyle=orthogonalEdgeStyle;rounded=0;orthogonalLoop=1;jettySize=auto;html=1;entryX=1;entryY=0.25;entryDx=0;entryDy=0;" edge="1" parent="1" source="uzc9sxKopWnoCpD7zDjD-6" target="uzc9sxKopWnoCpD7zDjD-1">
          <mxGeometry relative="1" as="geometry">
            <Array as="points">
              <mxPoint x="710" y="435" />
            </Array>
          </mxGeometry>
        </mxCell>
        <mxCell id="uzc9sxKopWnoCpD7zDjD-6" value="saisie.o" style="rounded=1;whiteSpace=wrap;html=1;" vertex="1" parent="1">
          <mxGeometry x="650" y="570" width="120" height="60" as="geometry" />
        </mxCell>
        <mxCell id="uzc9sxKopWnoCpD7zDjD-13" style="edgeStyle=orthogonalEdgeStyle;rounded=0;orthogonalLoop=1;jettySize=auto;html=1;entryX=0.5;entryY=1;entryDx=0;entryDy=0;" edge="1" parent="1" source="uzc9sxKopWnoCpD7zDjD-12" target="uzc9sxKopWnoCpD7zDjD-5">
          <mxGeometry relative="1" as="geometry" />
        </mxCell>
        <mxCell id="uzc9sxKopWnoCpD7zDjD-12" value="error.c" style="rounded=1;whiteSpace=wrap;html=1;" vertex="1" parent="1">
          <mxGeometry x="70" y="680" width="120" height="60" as="geometry" />
        </mxCell>
        <mxCell id="uzc9sxKopWnoCpD7zDjD-15" style="edgeStyle=orthogonalEdgeStyle;rounded=0;orthogonalLoop=1;jettySize=auto;html=1;entryX=0.5;entryY=1;entryDx=0;entryDy=0;" edge="1" parent="1" source="uzc9sxKopWnoCpD7zDjD-14" target="uzc9sxKopWnoCpD7zDjD-12">
          <mxGeometry relative="1" as="geometry" />
        </mxCell>
        <mxCell id="uzc9sxKopWnoCpD7zDjD-31" style="edgeStyle=orthogonalEdgeStyle;rounded=0;orthogonalLoop=1;jettySize=auto;html=1;entryX=0.5;entryY=1;entryDx=0;entryDy=0;" edge="1" parent="1" source="uzc9sxKopWnoCpD7zDjD-14" target="uzc9sxKopWnoCpD7zDjD-18">
          <mxGeometry relative="1" as="geometry" />
        </mxCell>
        <mxCell id="uzc9sxKopWnoCpD7zDjD-34" style="edgeStyle=orthogonalEdgeStyle;rounded=0;orthogonalLoop=1;jettySize=auto;html=1;exitX=1;exitY=0.25;exitDx=0;exitDy=0;entryX=0.25;entryY=1;entryDx=0;entryDy=0;" edge="1" parent="1" source="uzc9sxKopWnoCpD7zDjD-14" target="uzc9sxKopWnoCpD7zDjD-20">
          <mxGeometry relative="1" as="geometry" />
        </mxCell>
        <mxCell id="uzc9sxKopWnoCpD7zDjD-14" value="error.h" style="rounded=1;whiteSpace=wrap;html=1;" vertex="1" parent="1">
          <mxGeometry x="70" y="790" width="120" height="60" as="geometry" />
        </mxCell>
        <mxCell id="uzc9sxKopWnoCpD7zDjD-17" style="edgeStyle=orthogonalEdgeStyle;rounded=0;orthogonalLoop=1;jettySize=auto;html=1;entryX=0.5;entryY=1;entryDx=0;entryDy=0;" edge="1" parent="1" source="uzc9sxKopWnoCpD7zDjD-16" target="uzc9sxKopWnoCpD7zDjD-3">
          <mxGeometry relative="1" as="geometry" />
        </mxCell>
        <mxCell id="uzc9sxKopWnoCpD7zDjD-16" value="affiche&lt;span style=&quot;background-color: initial;&quot;&gt;.c&lt;/span&gt;" style="rounded=1;whiteSpace=wrap;html=1;" vertex="1" parent="1">
          <mxGeometry x="354" y="680" width="120" height="60" as="geometry" />
        </mxCell>
        <mxCell id="uzc9sxKopWnoCpD7zDjD-19" style="edgeStyle=orthogonalEdgeStyle;rounded=0;orthogonalLoop=1;jettySize=auto;html=1;entryX=0.5;entryY=1;entryDx=0;entryDy=0;" edge="1" parent="1" source="uzc9sxKopWnoCpD7zDjD-18" target="uzc9sxKopWnoCpD7zDjD-4">
          <mxGeometry relative="1" as="geometry" />
        </mxCell>
        <mxCell id="uzc9sxKopWnoCpD7zDjD-18" value="calcul&lt;span style=&quot;background-color: initial;&quot;&gt;.c&lt;/span&gt;" style="rounded=1;whiteSpace=wrap;html=1;" vertex="1" parent="1">
          <mxGeometry x="500" y="680" width="120" height="60" as="geometry" />
        </mxCell>
        <mxCell id="uzc9sxKopWnoCpD7zDjD-21" style="edgeStyle=orthogonalEdgeStyle;rounded=0;orthogonalLoop=1;jettySize=auto;html=1;entryX=0.5;entryY=1;entryDx=0;entryDy=0;" edge="1" parent="1" source="uzc9sxKopWnoCpD7zDjD-20" target="uzc9sxKopWnoCpD7zDjD-6">
          <mxGeometry relative="1" as="geometry" />
        </mxCell>
        <mxCell id="uzc9sxKopWnoCpD7zDjD-20" value="saisie&lt;span style=&quot;background-color: initial;&quot;&gt;.c&lt;/span&gt;" style="rounded=1;whiteSpace=wrap;html=1;" vertex="1" parent="1">
          <mxGeometry x="650" y="680" width="120" height="60" as="geometry" />
        </mxCell>
        <mxCell id="uzc9sxKopWnoCpD7zDjD-23" style="edgeStyle=orthogonalEdgeStyle;rounded=0;orthogonalLoop=1;jettySize=auto;html=1;entryX=0.5;entryY=1;entryDx=0;entryDy=0;" edge="1" parent="1" source="uzc9sxKopWnoCpD7zDjD-22" target="uzc9sxKopWnoCpD7zDjD-2">
          <mxGeometry relative="1" as="geometry" />
        </mxCell>
        <mxCell id="uzc9sxKopWnoCpD7zDjD-22" value="main&lt;span style=&quot;background-color: initial;&quot;&gt;.c&lt;/span&gt;" style="rounded=1;whiteSpace=wrap;html=1;" vertex="1" parent="1">
          <mxGeometry x="210" y="680" width="120" height="60" as="geometry" />
        </mxCell>
        <mxCell id="uzc9sxKopWnoCpD7zDjD-24" value="affiche.h" style="rounded=1;whiteSpace=wrap;html=1;" vertex="1" parent="1">
          <mxGeometry x="370" y="870" width="120" height="60" as="geometry" />
        </mxCell>
        <mxCell id="uzc9sxKopWnoCpD7zDjD-25" value="calcul&lt;span style=&quot;background-color: initial;&quot;&gt;.h&lt;/span&gt;" style="rounded=1;whiteSpace=wrap;html=1;" vertex="1" parent="1">
          <mxGeometry x="510" y="870" width="120" height="60" as="geometry" />
        </mxCell>
        <mxCell id="uzc9sxKopWnoCpD7zDjD-32" style="edgeStyle=orthogonalEdgeStyle;rounded=0;orthogonalLoop=1;jettySize=auto;html=1;" edge="1" parent="1" source="uzc9sxKopWnoCpD7zDjD-26" target="uzc9sxKopWnoCpD7zDjD-20">
          <mxGeometry relative="1" as="geometry" />
        </mxCell>
        <mxCell id="uzc9sxKopWnoCpD7zDjD-26" value="saisie&lt;span style=&quot;background-color: initial;&quot;&gt;.h&lt;/span&gt;" style="rounded=1;whiteSpace=wrap;html=1;" vertex="1" parent="1">
          <mxGeometry x="650" y="870" width="120" height="60" as="geometry" />
        </mxCell>
        <mxCell id="uzc9sxKopWnoCpD7zDjD-27" style="edgeStyle=orthogonalEdgeStyle;rounded=0;orthogonalLoop=1;jettySize=auto;html=1;entryX=0.633;entryY=1.017;entryDx=0;entryDy=0;entryPerimeter=0;" edge="1" parent="1" source="uzc9sxKopWnoCpD7zDjD-24" target="uzc9sxKopWnoCpD7zDjD-16">
          <mxGeometry relative="1" as="geometry" />
        </mxCell>
        <mxCell id="uzc9sxKopWnoCpD7zDjD-28" style="edgeStyle=orthogonalEdgeStyle;rounded=0;orthogonalLoop=1;jettySize=auto;html=1;entryX=0.825;entryY=1;entryDx=0;entryDy=0;entryPerimeter=0;" edge="1" parent="1" source="uzc9sxKopWnoCpD7zDjD-25" target="uzc9sxKopWnoCpD7zDjD-16">
          <mxGeometry relative="1" as="geometry">
            <Array as="points">
              <mxPoint x="530" y="790" />
              <mxPoint x="453" y="790" />
            </Array>
          </mxGeometry>
        </mxCell>
        <mxCell id="uzc9sxKopWnoCpD7zDjD-30" style="edgeStyle=orthogonalEdgeStyle;rounded=0;orthogonalLoop=1;jettySize=auto;html=1;exitX=0.75;exitY=0;exitDx=0;exitDy=0;entryX=0.833;entryY=0.95;entryDx=0;entryDy=0;entryPerimeter=0;" edge="1" parent="1" source="uzc9sxKopWnoCpD7zDjD-25" target="uzc9sxKopWnoCpD7zDjD-18">
          <mxGeometry relative="1" as="geometry" />
        </mxCell>
        <mxCell id="uzc9sxKopWnoCpD7zDjD-35" style="edgeStyle=orthogonalEdgeStyle;rounded=0;orthogonalLoop=1;jettySize=auto;html=1;exitX=0;exitY=0;exitDx=0;exitDy=0;entryX=0.567;entryY=0.967;entryDx=0;entryDy=0;entryPerimeter=0;" edge="1" parent="1" source="uzc9sxKopWnoCpD7zDjD-24" target="uzc9sxKopWnoCpD7zDjD-22">
          <mxGeometry relative="1" as="geometry">
            <Array as="points">
              <mxPoint x="370" y="780" />
              <mxPoint x="278" y="780" />
            </Array>
          </mxGeometry>
        </mxCell>
        <mxCell id="uzc9sxKopWnoCpD7zDjD-36" style="edgeStyle=orthogonalEdgeStyle;rounded=0;orthogonalLoop=1;jettySize=auto;html=1;exitX=0.25;exitY=0;exitDx=0;exitDy=0;entryX=0.825;entryY=1.067;entryDx=0;entryDy=0;entryPerimeter=0;" edge="1" parent="1" source="uzc9sxKopWnoCpD7zDjD-26" target="uzc9sxKopWnoCpD7zDjD-22">
          <mxGeometry relative="1" as="geometry">
            <Array as="points">
              <mxPoint x="670" y="870" />
              <mxPoint x="670" y="770" />
              <mxPoint x="309" y="770" />
            </Array>
          </mxGeometry>
        </mxCell>
      </root>
    </mxGraphModel>
  </diagram>
</mxfile>
